<svg width="200" height="60" viewBox="0 0 200 60" fill="none" xmlns="http://www.w3.org/2000/svg">
  <!-- Minare Base -->
  <rect x="18" y="35" width="8" height="20" fill="#1E4D7B" rx="1"/>

  <!-- Minare Middle -->
  <rect x="19.5" y="28" width="5" height="7" fill="#1E4D7B" rx="0.5"/>

  <!-- Minare Top -->
  <rect x="20.5" y="22" width="3" height="6" fill="#1E4D7B" rx="0.5"/>

  <!-- Minare Balcony -->
  <path d="M 16 35 L 28 35 L 28 36 L 16 36 Z" fill="#C3A878"/>
  <path d="M 17 28 L 27 28 L 27 29 L 17 29 Z" fill="#C3A878"/>

  <!-- Crescent Moon -->
  <path d="M 8 20 Q 4 20 4 15 Q 4 10 8 10 Q 6 12 6 15 Q 6 18 8 20 Z" fill="#C3A878"/>

  <!-- Star (5-pointed) -->
  <path d="M 35 15 L 36 17.5 L 38.5 17.5 L 36.5 19 L 37 21.5 L 35 20 L 33 21.5 L 33.5 19 L 31.5 17.5 L 34 17.5 Z" fill="#C3A878"/>

  <!-- Text: NAMAZ VAKİTLERİ -->
  <text x="50" y="30" font-family="Roboto, sans-serif" font-size="18" font-weight="700" fill="#1E4D7B">
    NAMAZ VAKİTLERİ
  </text>

  <!-- Tagline: Her Vakit Yanınızda -->
  <text x="50" y="45" font-family="Roboto, sans-serif" font-size="10" font-weight="400" fill="#8FB3D6">
    Her Vakit Yanınızda
  </text>
</svg>